<svg xmlns="http://www.w3.org/2000/svg" width="13.5" height="15.75" viewBox="0 0 13.5 15.75"><g transform="translate(1236.75 -755.75)"><path d="M9,6.747A2.046,2.046,0,0,1,6.951,4.7" transform="translate(-1239 755)" fill="none" stroke="#323232" stroke-linecap="round" stroke-linejoin="round" stroke-width="1.5" fill-rule="evenodd"/><path d="M6.95,4.7c0-.893.407-1.536,1.227-1.536" transform="translate(-1239 755)" fill="none" stroke="#323232" stroke-linecap="round" stroke-linejoin="round" stroke-width="1.5" fill-rule="evenodd"/><path d="M9,6.747A2.047,2.047,0,0,0,11.053,4.7" transform="translate(-1239 755)" fill="none" stroke="#323232" stroke-linecap="round" stroke-linejoin="round" stroke-width="1.5" fill-rule="evenodd"/><path d="M11.052,4.7c0-.893-.413-1.536-1.234-1.536" transform="translate(-1239 755)" fill="none" stroke="#323232" stroke-linecap="round" stroke-linejoin="round" stroke-width="1.5" fill-rule="evenodd"/><path d="M9.818,3.164A6.069,6.069,0,0,0,9,3.3a5.9,5.9,0,0,0-.821-.131" transform="translate(-1239 755)" fill="none" stroke="#323232" stroke-linecap="round" stroke-linejoin="round" stroke-width="1.5" fill-rule="evenodd"/><path d="M9,3.294V2.55A1.05,1.05,0,0,1,10.05,1.5" transform="translate(-1239 755)" fill="none" stroke="#323232" stroke-linecap="round" stroke-linejoin="round" stroke-width="1.5" fill-rule="evenodd"/><path d="M6.956,4.779C4.651,5.418,3,7.1,3,9.085v.052a2.08,2.08,0,0,0,1.6,2.075,1.98,1.98,0,0,0,1.854-.6.745.745,0,0,1,1.1.019,1.974,1.974,0,0,0,2.879,0,.745.745,0,0,1,1.1-.019,1.98,1.98,0,0,0,1.854.6A2.078,2.078,0,0,0,15,9.137V9.085C15,7.1,13.35,5.419,11.045,4.78" transform="translate(-1239 755)" fill="none" stroke="#323232" stroke-linecap="round" stroke-linejoin="round" stroke-width="1.5" fill-rule="evenodd"/><path d="M13.391,11.212l-.5,3.265A1.5,1.5,0,0,1,11.41,15.75H6.589a1.5,1.5,0,0,1-1.483-1.274l-.5-3.265" transform="translate(-1239 755)" fill="none" stroke="#323232" stroke-linecap="round" stroke-linejoin="round" stroke-width="1.5" fill-rule="evenodd"/></g></svg>