<svg xmlns="http://www.w3.org/2000/svg" width="15" height="15" viewBox="0 0 15 15"><g transform="translate(-2.5 -2.5)"><rect width="13.5" height="13.5" rx="3" transform="translate(3.25 3.25)" fill="none" stroke="#323232" stroke-linecap="round" stroke-linejoin="round" stroke-width="1.5"/><line x1="13.5" transform="translate(3.25 7)" fill="none" stroke="#323232" stroke-linecap="round" stroke-linejoin="round" stroke-width="1.5"/><path d="M12.975,8.625a.038.038,0,1,1-.038-.038" transform="translate(1 1)" fill="none" stroke="#323232" stroke-linecap="round" stroke-linejoin="round" stroke-width="1.5" fill-rule="evenodd"/><path d="M12.938,8.587a.038.038,0,0,1,.038.038" transform="translate(1 1)" fill="none" stroke="#323232" stroke-linecap="round" stroke-linejoin="round" stroke-width="1.5" fill-rule="evenodd"/><path d="M10.349,8.625a.037.037,0,1,1-.037-.038" transform="translate(1 1)" fill="none" stroke="#323232" stroke-linecap="round" stroke-linejoin="round" stroke-width="1.5" fill-rule="evenodd"/><path d="M10.312,8.587a.037.037,0,0,1,.037.038" transform="translate(1 1)" fill="none" stroke="#323232" stroke-linecap="round" stroke-linejoin="round" stroke-width="1.5" fill-rule="evenodd"/><path d="M7.724,8.625a.037.037,0,1,1-.037-.038" transform="translate(1 1)" fill="none" stroke="#323232" stroke-linecap="round" stroke-linejoin="round" stroke-width="1.5" fill-rule="evenodd"/><path d="M7.687,8.587a.038.038,0,0,1,.037.038" transform="translate(1 1)" fill="none" stroke="#323232" stroke-linecap="round" stroke-linejoin="round" stroke-width="1.5" fill-rule="evenodd"/><path d="M5.1,10.875a.037.037,0,1,1-.037-.038" transform="translate(1 1)" fill="none" stroke="#323232" stroke-linecap="round" stroke-linejoin="round" stroke-width="1.5" fill-rule="evenodd"/><path d="M5.062,10.837a.038.038,0,0,1,.037.038" transform="translate(1 1)" fill="none" stroke="#323232" stroke-linecap="round" stroke-linejoin="round" stroke-width="1.5" fill-rule="evenodd"/><path d="M7.724,10.875a.037.037,0,1,1-.037-.038" transform="translate(1 1)" fill="none" stroke="#323232" stroke-linecap="round" stroke-linejoin="round" stroke-width="1.5" fill-rule="evenodd"/><path d="M7.687,10.837a.038.038,0,0,1,.037.038" transform="translate(1 1)" fill="none" stroke="#323232" stroke-linecap="round" stroke-linejoin="round" stroke-width="1.5" fill-rule="evenodd"/><path d="M10.349,10.875a.037.037,0,1,1-.037-.038" transform="translate(1 1)" fill="none" stroke="#323232" stroke-linecap="round" stroke-linejoin="round" stroke-width="1.5" fill-rule="evenodd"/><path d="M10.312,10.837a.037.037,0,0,1,.037.038" transform="translate(1 1)" fill="none" stroke="#323232" stroke-linecap="round" stroke-linejoin="round" stroke-width="1.5" fill-rule="evenodd"/><path d="M12.975,10.875a.038.038,0,1,1-.038-.038" transform="translate(1 1)" fill="none" stroke="#323232" stroke-linecap="round" stroke-linejoin="round" stroke-width="1.5" fill-rule="evenodd"/><path d="M12.938,10.837a.038.038,0,0,1,.038.038" transform="translate(1 1)" fill="none" stroke="#323232" stroke-linecap="round" stroke-linejoin="round" stroke-width="1.5" fill-rule="evenodd"/><path d="M12.975,13.125a.038.038,0,1,1-.038-.038" transform="translate(1 1)" fill="none" stroke="#323232" stroke-linecap="round" stroke-linejoin="round" stroke-width="1.5" fill-rule="evenodd"/><path d="M12.938,13.087a.038.038,0,0,1,.038.038" transform="translate(1 1)" fill="none" stroke="#323232" stroke-linecap="round" stroke-linejoin="round" stroke-width="1.5" fill-rule="evenodd"/><path d="M10.349,13.125a.037.037,0,1,1-.037-.038" transform="translate(1 1)" fill="none" stroke="#323232" stroke-linecap="round" stroke-linejoin="round" stroke-width="1.5" fill-rule="evenodd"/><path d="M10.312,13.087a.037.037,0,0,1,.037.038" transform="translate(1 1)" fill="none" stroke="#323232" stroke-linecap="round" stroke-linejoin="round" stroke-width="1.5" fill-rule="evenodd"/><path d="M7.724,13.125a.037.037,0,1,1-.037-.038" transform="translate(1 1)" fill="none" stroke="#323232" stroke-linecap="round" stroke-linejoin="round" stroke-width="1.5" fill-rule="evenodd"/><path d="M7.687,13.087a.038.038,0,0,1,.037.038" transform="translate(1 1)" fill="none" stroke="#323232" stroke-linecap="round" stroke-linejoin="round" stroke-width="1.5" fill-rule="evenodd"/><path d="M5.1,13.125a.037.037,0,1,1-.037-.038" transform="translate(1 1)" fill="none" stroke="#323232" stroke-linecap="round" stroke-linejoin="round" stroke-width="1.5" fill-rule="evenodd"/><path d="M5.062,13.087a.038.038,0,0,1,.037.038" transform="translate(1 1)" fill="none" stroke="#323232" stroke-linecap="round" stroke-linejoin="round" stroke-width="1.5" fill-rule="evenodd"/></g></svg>