<svg xmlns="http://www.w3.org/2000/svg" width="14.431" height="15.199" viewBox="0 0 14.431 15.199"><g transform="translate(-66.069 -872.5)"><path d="M7.5,9.75l.408,1.224A1.5,1.5,0,0,0,9.332,12H14.25a1.5,1.5,0,0,0,1.5-1.5V6.116a1.5,1.5,0,0,0-1.5-1.5h-3.7" transform="translate(64 871)" fill="none" stroke="#323232" stroke-linecap="round" stroke-linejoin="round" stroke-width="1.5" fill-rule="evenodd"/><path d="M6.75,15.75,2.908,4.224A1.5,1.5,0,0,1,4.331,2.25h4.72a1.5,1.5,0,0,1,1.5,1.5v4.5a1.5,1.5,0,0,1-1.5,1.5H4.75" transform="translate(64 871)" fill="none" stroke="#323232" stroke-linecap="round" stroke-linejoin="round" stroke-width="1.5" fill-rule="evenodd"/></g></svg>