<?xml version="1.0" encoding="UTF-8"?>
<svg width="159px" height="32px" viewBox="0 0 159 32" version="1.1" xmlns="http://www.w3.org/2000/svg" xmlns:xlink="http://www.w3.org/1999/xlink">
    <title>B884E0E5-BD10-4AFA-893D-910E6610C31E@sv</title>
    <defs>
        <linearGradient x1="74.5231219%" y1="37.5%" x2="25.1932115%" y2="62.5%" id="linearGradient-1">
            <stop stop-color="#68F5D3" offset="0%"></stop>
            <stop stop-color="#37E0B0" offset="100%"></stop>
        </linearGradient>
    </defs>
    <g id="Employee" stroke="none" stroke-width="1" fill="none" fill-rule="evenodd">
        <g id="Employee---Profile" transform="translate(-20.000000, -14.000000)">
            <rect fill="#F0F5FA" x="0" y="0" width="1440" height="1024"></rect>
            <g id="Header-Empleado">
                <rect id="Rectangle" fill="#172C45" fill-rule="nonzero" x="0" y="0" width="1440" height="60"></rect>
                <g id="Logos/Logo-complete" transform="translate(20.000000, 14.000000)">
                    <g id="Group-Copy">
                        <polygon id="Path-2" fill="url(#linearGradient-1)" points="0 10.6666667 10.6666667 0 21.3333333 0 10.6666667 10.6666667"></polygon>
                        <polygon id="Path-2-Copy" fill="url(#linearGradient-1)" points="10.6666667 21.3333333 21.3333333 10.6666667 32 10.6666667 21.3333333 21.3333333"></polygon>
                        <polygon id="Path-19" fill="#22C498" points="10.6666667 10.6666667 21.3333333 0 21.3333333 10.6666667 10.6666667 21.3333333"></polygon>
                        <polygon id="Path-19-Copy" fill="#22C498" points="21.3333333 21.3333333 32 10.6666667 32 21.3333333 21.3333333 32"></polygon>
                    </g>
                    <path d="M43.5566406,24 L43.5566406,12.9960938 L47.546875,12.9960938 L47.546875,11.203125 L37.3955078,11.203125 L37.3955078,12.9960938 L41.3505859,12.9960938 L41.3505859,24 L43.5566406,24 Z M53.2070312,24.1757812 C53.9980469,24.1757812 54.7114258,24.019043 55.347168,23.7055664 C55.9829102,23.3920898 56.4912109,22.9511719 56.8720703,22.3828125 L56.8720703,22.3828125 L55.7207031,21.2841797 C55.1054688,22.0751953 54.3085938,22.4707031 53.3300781,22.4707031 C52.6328125,22.4707031 52.0541992,22.2421875 51.5942383,21.7851562 C51.1342773,21.328125 50.8720703,20.7070312 50.8076172,19.921875 L50.8076172,19.921875 L57.0214844,19.921875 L57.0214844,19.0605469 C57.0214844,17.5488281 56.668457,16.3798828 55.9624023,15.5537109 C55.2563477,14.7275391 54.2558594,14.3144531 52.9609375,14.3144531 C52.1464844,14.3144531 51.4082031,14.5224609 50.7460938,14.9384766 C50.0839844,15.3544922 49.5698242,15.9360352 49.2036133,16.6831055 C48.8374023,17.4301758 48.6542969,18.2783203 48.6542969,19.2275391 L48.6542969,19.2275391 L48.6542969,19.4912109 C48.6542969,20.9091797 49.074707,22.0444336 49.9155273,22.8969727 C50.7563477,23.7495117 51.8535156,24.1757812 53.2070312,24.1757812 Z M54.9121094,18.3574219 L50.8427734,18.3574219 C50.9423828,17.625 51.1723633,17.0537109 51.5327148,16.6435547 C51.8930664,16.2333984 52.3662109,16.0283203 52.9521484,16.0283203 C53.5439453,16.0283203 54.0068359,16.2114258 54.3408203,16.5776367 C54.6748047,16.9438477 54.8652344,17.484375 54.9121094,18.1992188 L54.9121094,18.1992188 L54.9121094,18.3574219 Z M61.6181641,24.1757812 C62.6025391,24.1757812 63.4345703,23.8212891 64.1142578,23.1123047 C64.1845703,23.5224609 64.2666016,23.8183594 64.3603516,24 L64.3603516,24 L66.5400391,24 L66.5400391,23.8505859 C66.2998047,23.3408203 66.1796875,22.6582031 66.1796875,21.8027344 L66.1796875,21.8027344 L66.1796875,17.5136719 C66.1621094,16.5 65.8222656,15.7133789 65.1601562,15.1538086 C64.4980469,14.5942383 63.6103516,14.3144531 62.4970703,14.3144531 C61.7646484,14.3144531 61.1010742,14.4433594 60.5063477,14.7011719 C59.9116211,14.9589844 59.4414062,15.3149414 59.0957031,15.769043 C58.75,16.2231445 58.5771484,16.7109375 58.5771484,17.2324219 L58.5771484,17.2324219 L60.7128906,17.2324219 C60.7128906,16.8574219 60.8681641,16.5483398 61.1787109,16.3051758 C61.4892578,16.0620117 61.8876953,15.9404297 62.3740234,15.9404297 C62.9365234,15.9404297 63.3554688,16.0883789 63.6308594,16.3842773 C63.90625,16.6801758 64.0439453,17.0742188 64.0439453,17.5664062 L64.0439453,17.5664062 L64.0439453,18.1904297 L62.734375,18.1904297 C61.3339844,18.1904297 60.2573242,18.4614258 59.5043945,19.003418 C58.7514648,19.5454102 58.375,20.3232422 58.375,21.3369141 C58.375,22.1396484 58.6767578,22.8134766 59.2802734,23.3583984 C59.8837891,23.9033203 60.6630859,24.1757812 61.6181641,24.1757812 Z M62.0136719,22.4619141 C61.5566406,22.4619141 61.1918945,22.340332 60.9194336,22.097168 C60.6469727,21.8540039 60.5107422,21.5273438 60.5107422,21.1171875 C60.5107422,20.6132812 60.7099609,20.2236328 61.1083984,19.9482422 C61.5068359,19.6728516 62.1015625,19.5351562 62.8925781,19.5351562 L62.8925781,19.5351562 L64.0439453,19.5351562 L64.0439453,21.328125 C63.8564453,21.6738281 63.5766602,21.9492188 63.2045898,22.1542969 C62.8325195,22.359375 62.4355469,22.4619141 62.0136719,22.4619141 Z M70.5478516,24 L70.5478516,17.109375 C70.9052734,16.4121094 71.5117188,16.0634766 72.3671875,16.0634766 C73.4804688,16.0634766 74.0517578,16.6230469 74.0810547,17.7421875 L74.0810547,17.7421875 L74.0810547,24 L76.2167969,24 L76.2080078,17.4785156 C76.3310547,17.0566406 76.5463867,16.715332 76.8540039,16.4545898 C77.1616211,16.1938477 77.5585938,16.0634766 78.0449219,16.0634766 C78.6542969,16.0634766 79.0908203,16.2041016 79.3544922,16.4853516 C79.6181641,16.7666016 79.75,17.2089844 79.75,17.8125 L79.75,17.8125 L79.75,24 L81.8857422,24 L81.8857422,17.7509766 C81.8740234,16.6201172 81.6118164,15.7646484 81.0991211,15.1845703 C80.5864258,14.6044922 79.8056641,14.3144531 78.7568359,14.3144531 C77.5029297,14.3144531 76.5302734,14.8007812 75.8388672,15.7734375 C75.3701172,14.8007812 74.5,14.3144531 73.2285156,14.3144531 C72.0683594,14.3144531 71.1542969,14.7041016 70.4863281,15.4833984 L70.4863281,15.4833984 L70.4248047,14.4902344 L68.4121094,14.4902344 L68.4121094,24 L70.5478516,24 Z M89.2070312,24.1757812 C90.2558594,24.1757812 91.1831055,23.9223633 91.9887695,23.4155273 C92.7944336,22.9086914 93.4140625,22.1821289 93.8476562,21.2358398 C94.28125,20.2895508 94.4980469,19.1894531 94.4980469,17.9355469 L94.4980469,17.9355469 L94.4980469,17.2236328 C94.4921875,15.9755859 94.2695312,14.8813477 93.8300781,13.940918 C93.390625,13.0004883 92.7680664,12.2797852 91.9624023,11.7788086 C91.1567383,11.277832 90.2324219,11.0273438 89.1894531,11.0273438 C88.1464844,11.0273438 87.222168,11.2807617 86.4165039,11.7875977 C85.6108398,12.2944336 84.9868164,13.0253906 84.5444336,13.9804688 C84.1020508,14.9355469 83.8808594,16.0371094 83.8808594,17.2851562 L83.8808594,17.2851562 L83.8808594,18.0058594 C83.8867188,19.2304688 84.1108398,20.3115234 84.5532227,21.2490234 C84.9956055,22.1865234 85.6225586,22.9086914 86.434082,23.4155273 C87.2456055,23.9223633 88.1699219,24.1757812 89.2070312,24.1757812 Z M89.2070312,22.3476562 C88.234375,22.3476562 87.4741211,21.9638672 86.9262695,21.1962891 C86.378418,20.4287109 86.1044922,19.3417969 86.1044922,17.9355469 L86.1044922,17.9355469 L86.1044922,17.1972656 C86.1162109,15.8203125 86.3930664,14.7553711 86.9350586,14.0024414 C87.4770508,13.2495117 88.2285156,12.8730469 89.1894531,12.8730469 C90.1738281,12.8730469 90.934082,13.2509766 91.4702148,14.0068359 C92.0063477,14.7626953 92.2744141,15.8496094 92.2744141,17.2675781 L92.2744141,17.2675781 L92.2744141,17.9355469 C92.2744141,19.3769531 92.0092773,20.4726562 91.4790039,21.2226562 C90.9487305,21.9726562 90.1914062,22.3476562 89.2070312,22.3476562 Z M98.6113281,24 L98.6113281,17.2324219 C99.0332031,16.453125 99.6748047,16.0634766 100.536133,16.0634766 C101.12793,16.0634766 101.554199,16.2084961 101.814941,16.4985352 C102.075684,16.7885742 102.206055,17.2353516 102.206055,17.8388672 L102.206055,17.8388672 L102.206055,24 L104.341797,24 L104.341797,17.7158203 C104.306641,15.4482422 103.298828,14.3144531 101.318359,14.3144531 C100.175781,14.3144531 99.2529297,14.7392578 98.5498047,15.5888672 L98.5498047,15.5888672 L98.4882812,14.4902344 L96.4755859,14.4902344 L96.4755859,24 L98.6113281,24 Z M111.390625,24 C112.826172,24 113.929199,23.6777344 114.699707,23.0332031 C115.470215,22.3886719 115.855469,21.4658203 115.855469,20.2646484 C115.855469,19.5380859 115.666504,18.9155273 115.288574,18.3969727 C114.910645,17.878418 114.375977,17.5253906 113.68457,17.3378906 C114.293945,17.0800781 114.756836,16.7167969 115.073242,16.2480469 C115.389648,15.7792969 115.547852,15.2519531 115.547852,14.6660156 C115.547852,13.5175781 115.169922,12.6533203 114.414062,12.0732422 C113.658203,11.4931641 112.556641,11.203125 111.109375,11.203125 L111.109375,11.203125 L106.723633,11.203125 L106.723633,24 L111.390625,24 Z M111.126953,16.5908203 L108.947266,16.5908203 L108.947266,12.9960938 L111.109375,12.9960938 C111.871094,12.9960938 112.432129,13.1367188 112.79248,13.4179688 C113.152832,13.6992188 113.333008,14.15625 113.333008,14.7890625 C113.333008,15.3632812 113.138184,15.8071289 112.748535,16.1206055 C112.358887,16.434082 111.818359,16.5908203 111.126953,16.5908203 L111.126953,16.5908203 Z M111.416992,22.2246094 L108.947266,22.2246094 L108.947266,18.2255859 L111.601562,18.2255859 C112.960938,18.2548828 113.640625,18.9345703 113.640625,20.2646484 C113.640625,20.8798828 113.444336,21.3603516 113.051758,21.7060547 C112.65918,22.0517578 112.114258,22.2246094 111.416992,22.2246094 L111.416992,22.2246094 Z M121.902344,24.1757812 C122.78125,24.1757812 123.556152,23.9736328 124.227051,23.5693359 C124.897949,23.1650391 125.413574,22.59375 125.773926,21.8554688 C126.134277,21.1171875 126.314453,20.2792969 126.314453,19.3417969 L126.314453,19.3417969 L126.305664,18.8408203 C126.241211,17.4755859 125.809082,16.3798828 125.009277,15.5537109 C124.209473,14.7275391 123.167969,14.3144531 121.884766,14.3144531 C121.017578,14.3144531 120.25,14.5151367 119.582031,14.9165039 C118.914062,15.3178711 118.395508,15.8920898 118.026367,16.6391602 C117.657227,17.3862305 117.472656,18.2255859 117.472656,19.1572266 L117.472656,19.1572266 L117.472656,19.2626953 C117.472656,20.7509766 117.875488,21.9418945 118.681152,22.8354492 C119.486816,23.7290039 120.560547,24.1757812 121.902344,24.1757812 Z M121.902344,22.4707031 C121.181641,22.4707031 120.619141,22.1938477 120.214844,21.6401367 C119.810547,21.0864258 119.608398,20.3203125 119.608398,19.3417969 C119.608398,18.2402344 119.813477,17.4125977 120.223633,16.8588867 C120.633789,16.3051758 121.1875,16.0283203 121.884766,16.0283203 C122.59375,16.0283203 123.154785,16.3095703 123.567871,16.8720703 C123.980957,17.4345703 124.1875,18.1962891 124.1875,19.1572266 C124.1875,20.2412109 123.986816,21.0644531 123.585449,21.6269531 C123.184082,22.1894531 122.623047,22.4707031 121.902344,22.4707031 Z M131.060547,24.1757812 C132.044922,24.1757812 132.876953,23.8212891 133.556641,23.1123047 C133.626953,23.5224609 133.708984,23.8183594 133.802734,24 L133.802734,24 L135.982422,24 L135.982422,23.8505859 C135.742188,23.3408203 135.62207,22.6582031 135.62207,21.8027344 L135.62207,21.8027344 L135.62207,17.5136719 C135.604492,16.5 135.264648,15.7133789 134.602539,15.1538086 C133.94043,14.5942383 133.052734,14.3144531 131.939453,14.3144531 C131.207031,14.3144531 130.543457,14.4433594 129.94873,14.7011719 C129.354004,14.9589844 128.883789,15.3149414 128.538086,15.769043 C128.192383,16.2231445 128.019531,16.7109375 128.019531,17.2324219 L128.019531,17.2324219 L130.155273,17.2324219 C130.155273,16.8574219 130.310547,16.5483398 130.621094,16.3051758 C130.931641,16.0620117 131.330078,15.9404297 131.816406,15.9404297 C132.378906,15.9404297 132.797852,16.0883789 133.073242,16.3842773 C133.348633,16.6801758 133.486328,17.0742188 133.486328,17.5664062 L133.486328,17.5664062 L133.486328,18.1904297 L132.176758,18.1904297 C130.776367,18.1904297 129.699707,18.4614258 128.946777,19.003418 C128.193848,19.5454102 127.817383,20.3232422 127.817383,21.3369141 C127.817383,22.1396484 128.119141,22.8134766 128.722656,23.3583984 C129.326172,23.9033203 130.105469,24.1757812 131.060547,24.1757812 Z M131.456055,22.4619141 C130.999023,22.4619141 130.634277,22.340332 130.361816,22.097168 C130.089355,21.8540039 129.953125,21.5273438 129.953125,21.1171875 C129.953125,20.6132812 130.152344,20.2236328 130.550781,19.9482422 C130.949219,19.6728516 131.543945,19.5351562 132.334961,19.5351562 L132.334961,19.5351562 L133.486328,19.5351562 L133.486328,21.328125 C133.298828,21.6738281 133.019043,21.9492188 132.646973,22.1542969 C132.274902,22.359375 131.87793,22.4619141 131.456055,22.4619141 Z M139.990234,24 L139.990234,17.4960938 C140.330078,16.7460938 140.989258,16.3710938 141.967773,16.3710938 C142.266602,16.3710938 142.556641,16.3945312 142.837891,16.4414062 L142.837891,16.4414062 L142.84668,14.4375 C142.647461,14.3554688 142.395508,14.3144531 142.09082,14.3144531 C141.176758,14.3144531 140.461914,14.7275391 139.946289,15.5537109 L139.946289,15.5537109 L139.893555,14.4902344 L137.854492,14.4902344 L137.854492,24 L139.990234,24 Z M147.522461,24.1757812 C148.588867,24.1757812 149.441406,23.7890625 150.080078,23.015625 L150.080078,23.015625 L150.185547,24 L152.119141,24 L152.119141,10.5 L149.983398,10.5 L149.983398,15.3691406 C149.362305,14.6660156 148.547852,14.3144531 147.540039,14.3144531 C146.397461,14.3144531 145.486328,14.7583008 144.806641,15.6459961 C144.126953,16.5336914 143.787109,17.7099609 143.787109,19.1748047 C143.787109,20.7158203 144.131348,21.9345703 144.819824,22.8310547 C145.508301,23.7275391 146.40918,24.1757812 147.522461,24.1757812 Z M148.067383,22.4355469 C147.381836,22.4355469 146.853027,22.1645508 146.480957,21.6225586 C146.108887,21.0805664 145.922852,20.3261719 145.922852,19.359375 C145.922852,18.2578125 146.110352,17.4331055 146.485352,16.8852539 C146.860352,16.3374023 147.393555,16.0634766 148.084961,16.0634766 C148.958008,16.0634766 149.59082,16.4443359 149.983398,17.2060547 L149.983398,17.2060547 L149.983398,21.2666016 C149.579102,22.0458984 148.94043,22.4355469 148.067383,22.4355469 Z" id="TeamOnBoard" fill="#FFFFFF" fill-rule="nonzero"></path>
                </g>
            </g>
        </g>
    </g>
</svg>