<svg xmlns="http://www.w3.org/2000/svg" width="15.375" height="15.375" viewBox="0 0 15.375 15.375"><g transform="translate(1735.313 340.313)"><line x1="13.5" transform="translate(-1734.75 -336)" fill="none" stroke="#323232" stroke-linecap="round" stroke-linejoin="round" stroke-width="1.125"/><path d="M13.125,9.75h0A3.375,3.375,0,1,1,9.75,13.125h0A3.375,3.375,0,0,1,13.125,9.75h0" transform="translate(-1737 -342)" fill="none" stroke="#323232" stroke-linecap="round" stroke-linejoin="round" stroke-width="1.125" fill-rule="evenodd"/><path d="M11,15.75H4.5A2.25,2.25,0,0,1,2.25,13.5h0v-9h0A2.25,2.25,0,0,1,4.5,2.25h9A2.25,2.25,0,0,1,15.75,4.5V11" transform="translate(-1737 -342)" fill="none" stroke="#323232" stroke-linecap="round" stroke-linejoin="round" stroke-width="1.125" fill-rule="evenodd"/><path d="M13.045,11.987v1.318l1.036.632" transform="translate(-1737 -342)" fill="none" stroke="#323232" stroke-linecap="round" stroke-linejoin="round" stroke-width="1.125" fill-rule="evenodd"/><path d="M10.312,8.587h0a.037.037,0,1,0,.037.037h0a.037.037,0,0,0-.037-.037" transform="translate(-1737 -342)" fill="none" stroke="#323232" stroke-linecap="round" stroke-linejoin="round" stroke-width="1.125" fill-rule="evenodd"/><path d="M7.687,8.587h0a.036.036,0,0,0-.036.036h0a.037.037,0,1,0,.037-.037h0" transform="translate(-1737 -342)" fill="none" stroke="#323232" stroke-linecap="round" stroke-linejoin="round" stroke-width="1.125" fill-rule="evenodd"/><path d="M5.062,8.587h0a.036.036,0,0,0-.037.035s0,0,0,0h0a.037.037,0,1,0,.037-.037h0" transform="translate(-1737 -342)" fill="none" stroke="#323232" stroke-linecap="round" stroke-linejoin="round" stroke-width="1.125" fill-rule="evenodd"/><path d="M7.687,10.837h0a.036.036,0,0,0-.036.036h0a.037.037,0,1,0,.037-.037h0" transform="translate(-1737 -342)" fill="none" stroke="#323232" stroke-linecap="round" stroke-linejoin="round" stroke-width="1.125" fill-rule="evenodd"/><path d="M5.062,10.837h0a.036.036,0,0,0-.037.035s0,0,0,0h0a.037.037,0,1,0,.037-.037h0" transform="translate(-1737 -342)" fill="none" stroke="#323232" stroke-linecap="round" stroke-linejoin="round" stroke-width="1.125" fill-rule="evenodd"/><path d="M7.687,13.088h0a.036.036,0,0,0-.036.036h0a.037.037,0,1,0,.037-.037h0" transform="translate(-1737 -342)" fill="none" stroke="#323232" stroke-linecap="round" stroke-linejoin="round" stroke-width="1.125" fill-rule="evenodd"/><path d="M5.062,13.088h0a.036.036,0,0,0-.037.035s0,0,0,0h0a.037.037,0,1,0,.037-.037h0" transform="translate(-1737 -342)" fill="none" stroke="#323232" stroke-linecap="round" stroke-linejoin="round" stroke-width="1.125" fill-rule="evenodd"/></g></svg>